STARTFONT 2.1
FONT -Misc-Fixed-Medium-R-Normal--8-80-75-75-C-50-ISO10646-1
SIZE 11 75 75
FONTBOUNDINGBOX 5 8 0 -1
STARTPROPERTIES 22
FONTNAME_REGISTRY ""
FOUNDRY "Misc"
FAMILY_NAME "Fixed"
WEIGHT_NAME "Medium"
SLANT "R"
SETWIDTH_NAME "Normal"
ADD_STYLE_NAME ""
PIXEL_SIZE 8
POINT_SIZE 80
RESOLUTION_X 75
RESOLUTION_Y 75
SPACING "C"
AVERAGE_WIDTH 50
CHARSET_REGISTRY "ISO10646"
CHARSET_ENCODING "1"
FONT_DESCENT 1
FONT_ASCENT 7
COPYRIGHT "Public domain font.  Share and enjoy."
DEFAULT_CHAR 0
_XMBDFED_INFO "Edited by hand for pong clock"
CAP_HEIGHT 6
X_HEIGHT 4
ENDPROPERTIES
CHARS 10
STARTCHAR zero
ENCODING 48
SWIDTH 436 0
DWIDTH 5 0
BBX 5 8 0 -1
BITMAP
00
78
48
48
48
48
78
00
ENDCHAR
STARTCHAR one
ENCODING 49
SWIDTH 436 0
DWIDTH 5 0
BBX 5 8 0 -1
BITMAP
00
08
08
08
08
08
08
00
ENDCHAR
STARTCHAR two
ENCODING 50
SWIDTH 436 0
DWIDTH 5 0
BBX 5 8 0 -1
BITMAP
00
78
08
78
40
40
78
00
ENDCHAR
STARTCHAR three
ENCODING 51
SWIDTH 436 0
DWIDTH 5 0
BBX 5 8 0 -1
BITMAP
00
78
08
38
08
08
78
00
ENDCHAR
STARTCHAR four
ENCODING 52
SWIDTH 436 0
DWIDTH 5 0
BBX 5 8 0 -1
BITMAP
00
48
48
78
08
08
08
00
ENDCHAR
STARTCHAR five
ENCODING 53
SWIDTH 436 0
DWIDTH 5 0
BBX 5 8 0 -1
BITMAP
00
78
40
78
08
08
78
00
ENDCHAR
STARTCHAR six
ENCODING 54
SWIDTH 436 0
DWIDTH 5 0
BBX 5 8 0 -1
BITMAP
00
40
40
78
48
48
78
00
ENDCHAR
STARTCHAR seven
ENCODING 55
SWIDTH 436 0
DWIDTH 5 0
BBX 5 8 0 -1
BITMAP
00
78
08
08
08
08
08
00
ENDCHAR
STARTCHAR eight
ENCODING 56
SWIDTH 436 0
DWIDTH 5 0
BBX 5 8 0 -1
BITMAP
00
78
48
78
48
48
78
00
ENDCHAR
STARTCHAR nine
ENCODING 57
SWIDTH 436 0
DWIDTH 5 0
BBX 5 8 0 -1
BITMAP
00
78
48
78
08
08
08
00
ENDCHAR
ENDFONT

